<?xml version="1.0" encoding="UTF-8"?>
<svg version="1.1" xmlns="http://www.w3.org/2000/svg" width="132" height="133">
<path d="M0 0 C9.3460477 5.35092866 13.19140151 15.42515603 17.44140625 24.765625 C19.2495039 28.7392753 21.17155775 32.63677187 23.14453125 36.53125 C25.55129235 41.30691304 27.83188621 46.11316337 30.01953125 50.9921875 C34.53382913 60.92854969 39.23334459 70.78510353 44.14453125 80.53125 C44.69753906 81.63984375 45.25054687 82.7484375 45.8203125 83.890625 C46.92610895 86.09693964 48.04900105 88.29475626 49.1875 90.484375 C53.45005111 99.02972687 55.45874142 106.51024722 53.76953125 116.03125 C50.79287877 123.11851782 46.5739596 128.08765856 39.45703125 131.15625 C37.44106674 131.41631222 37.44106674 131.41631222 35.27142334 131.43040466 C34.44448471 131.44037979 33.61754608 131.45035492 32.76554871 131.46063232 C31.41738823 131.46162933 31.41738823 131.46162933 30.04199219 131.46264648 C29.08865494 131.47097 28.13531769 131.47929352 27.15309143 131.48786926 C23.99915488 131.51197812 20.8454252 131.52074321 17.69140625 131.52734375 C15.49668313 131.53631051 13.30196063 131.54543236 11.10723877 131.55470276 C6.50393183 131.5711985 1.90069767 131.57889375 -2.70263672 131.58178711 C-8.59177654 131.58716662 -14.48022904 131.62482697 -20.36917496 131.67053127 C-24.90403722 131.70032551 -29.4387346 131.70751122 -33.97368622 131.70851326 C-36.14415377 131.71271204 -38.31462198 131.72513251 -40.48499298 131.74603081 C-43.52728748 131.77298882 -46.56799725 131.76810567 -49.61035156 131.75561523 C-50.50102829 131.77044952 -51.39170502 131.78528381 -52.30937195 131.80056763 C-59.60945459 131.71553558 -64.11166546 129.10399124 -69.56640625 124.41796875 C-74.55432449 118.60834143 -75.77906018 113.12776874 -75.66796875 105.59375 C-74.95536271 99.08312206 -72.19759516 94.12879094 -68.98828125 88.53515625 C-66.06581418 83.41544467 -63.56325092 78.10746666 -61.04296875 72.78125 C-60.57286377 71.79278076 -60.10275879 70.80431152 -59.6184082 69.78588867 C-57.50929066 65.34192496 -55.41561607 60.89113766 -53.34375 56.4296875 C-49.94181781 49.1119212 -46.41650728 41.92310736 -42.55102539 34.83813477 C-39.56804605 29.32494318 -36.91051012 23.67732742 -34.33203125 17.96484375 C-27.65219779 3.37024964 -16.9135393 -5.61186557 0 0 Z M-18.54296875 9.15625 C-18.54296875 9.81625 -18.54296875 10.47625 -18.54296875 11.15625 C-19.53296875 11.48625 -20.52296875 11.81625 -21.54296875 12.15625 C-23.06863837 14.63583929 -24.41858248 17.0661882 -25.73046875 19.65625 C-26.32202759 20.79888306 -26.32202759 20.79888306 -26.92553711 21.96459961 C-29.95154485 27.86086024 -32.8027073 33.83454149 -35.5925293 39.84545898 C-39.39350398 48.03398433 -43.47271692 56.07871049 -47.54296875 64.13574219 C-48.54480563 66.12082718 -49.54465891 68.10688896 -50.54296875 70.09375 C-51.03361816 71.07021484 -51.03361816 71.07021484 -51.53417969 72.06640625 C-54.38056369 77.76477187 -57.09470762 83.52235693 -59.75390625 89.31030273 C-61.27940167 92.60205585 -62.87163309 95.77798724 -64.71875 98.90234375 C-66.90950866 102.81005673 -67.75346458 105.7095255 -67.54296875 110.15625 C-65.85076007 116.02920952 -63.41820875 118.77343041 -58.54296875 122.15625 C-54.88455784 123.47153583 -51.22347738 123.26969471 -47.37109375 123.25390625 C-46.12231445 123.25140869 -44.87353516 123.24891113 -43.58691406 123.24633789 C-41.21391113 123.23268188 -41.21391113 123.23268188 -38.79296875 123.21875 C-33.76046875 123.198125 -28.72796875 123.1775 -23.54296875 123.15625 C-23.54296875 109.29625 -23.54296875 95.43625 -23.54296875 81.15625 C-25.85296875 81.15625 -28.16296875 81.15625 -30.54296875 81.15625 C-30.26040783 79.21740111 -29.96658945 77.28019039 -29.66796875 75.34375 C-29.50554688 74.26480469 -29.343125 73.18585938 -29.17578125 72.07421875 C-28.54296875 69.15625 -28.54296875 69.15625 -26.54296875 66.15625 C-25.55296875 65.82625 -24.56296875 65.49625 -23.54296875 65.15625 C-23.45660156 64.43179688 -23.37023438 63.70734375 -23.28125 62.9609375 C-22.32860418 56.40603509 -21.15676386 52.89146077 -16.54296875 48.15625 C-16.54296875 47.49625 -16.54296875 46.83625 -16.54296875 46.15625 C-15.98738281 45.87910156 -15.43179688 45.60195313 -14.859375 45.31640625 C-13.27755924 44.52416463 -11.70223944 43.71885274 -10.1328125 42.90234375 C-3.43696648 39.59879675 1.99765669 38.44687498 9.45703125 38.15625 C9.45703125 43.10625 9.45703125 48.05625 9.45703125 53.15625 C8.09578125 53.23875 6.73453125 53.32125 5.33203125 53.40625 C0.79680355 53.91333845 -2.01471243 55.14432387 -5.54296875 58.15625 C-7.32526551 60.82969514 -7.54296875 61.89395359 -7.54296875 65.15625 C-0.61296875 65.65125 -0.61296875 65.65125 6.45703125 66.15625 C5.58203125 79.03125 5.58203125 79.03125 4.45703125 80.15625 C-1.48296875 80.65125 -1.48296875 80.65125 -7.54296875 81.15625 C-7.54296875 95.01625 -7.54296875 108.87625 -7.54296875 123.15625 C-1.54650622 123.24830657 4.44748447 123.32787672 10.4440918 123.37597656 C12.48193693 123.39603632 14.51972491 123.42329099 16.55737305 123.45800781 C19.49412172 123.50677434 22.43010643 123.52927541 25.3671875 123.546875 C26.72385277 123.57784271 26.72385277 123.57784271 28.10792542 123.60943604 C34.09258964 123.6115376 37.55200775 122.6382433 42.45703125 119.15625 C45.50549984 115.39647207 46.37934127 111.97302876 46.45703125 107.15625 C44.54203945 99.10519294 40.34307299 91.73029545 36.6015625 84.40625 C34.43876085 80.15722343 32.40604437 75.85352984 30.39453125 71.53125 C27.97604246 66.33987418 25.4905238 61.1988157 22.89453125 56.09375 C20.01870419 50.40760446 17.45434778 44.63258918 14.94775391 38.77856445 C13.06667114 34.4275614 10.97202433 30.32863201 8.57421875 26.24609375 C7.28915966 23.84222447 6.35005218 21.39550939 5.39453125 18.84375 C3.98325348 15.16985685 2.72048081 12.54944634 -0.54296875 10.15625 C-1.20296875 10.15625 -1.86296875 10.15625 -2.54296875 10.15625 C-2.54296875 9.49625 -2.54296875 8.83625 -2.54296875 8.15625 C-8.3777189 7.30294662 -12.99157526 6.67273186 -18.54296875 9.15625 Z " fill="#FFBD21" transform="translate(76.54296875,0.84375)"/>
</svg>
